<svg width="78" height="78" viewBox="0 0 78 78" fill="none" xmlns="http://www.w3.org/2000/svg">
<rect width="78" height="78" fill="#666060"/>
<path d="M38.9973 33.869C36.1579 33.869 33.8664 36.1606 33.8664 39C33.8664 41.8394 36.1579 44.131 38.9973 44.131C41.8367 44.131 44.1282 41.8394 44.1282 39C44.1282 36.1606 41.8367 33.869 38.9973 33.869ZM38.9973 42.3348C37.1611 42.3348 35.6626 40.8362 35.6626 39C35.6626 37.1638 37.1611 35.6652 38.9973 35.6652C40.8335 35.6652 42.332 37.1638 42.332 39C42.332 40.8362 40.8335 42.3348 38.9973 42.3348ZM44.3383 32.4631C43.6754 32.4631 43.14 32.9984 43.14 33.6614C43.14 34.3243 43.6754 34.8597 44.3383 34.8597C45.0013 34.8597 45.5366 34.3268 45.5366 33.6614C45.5368 33.504 45.5059 33.3481 45.4458 33.2026C45.3856 33.0571 45.2974 32.9249 45.1861 32.8136C45.0748 32.7023 44.9426 32.614 44.7971 32.5539C44.6516 32.4937 44.4957 32.4629 44.3383 32.4631ZM48.9989 39C48.9989 37.6191 49.0114 36.2506 48.9338 34.8722C48.8563 33.2711 48.4911 31.8502 47.3203 30.6794C46.147 29.5061 44.7286 29.1433 43.1275 29.0658C41.7466 28.9882 40.3782 29.0007 38.9998 29.0007C37.6189 29.0007 36.2505 28.9882 34.8721 29.0658C33.271 29.1433 31.8501 29.5086 30.6793 30.6794C29.5061 31.8527 29.1433 33.2711 29.0658 34.8722C28.9882 36.2531 29.0007 37.6216 29.0007 39C29.0007 40.3784 28.9882 41.7494 29.0658 43.1278C29.1433 44.7289 29.5086 46.1498 30.6793 47.3206C31.8526 48.4939 33.271 48.8567 34.8721 48.9342C36.253 49.0118 37.6214 48.9993 38.9998 48.9993C40.3807 48.9993 41.7491 49.0118 43.1275 48.9342C44.7286 48.8567 46.1495 48.4914 47.3203 47.3206C48.4936 46.1473 48.8563 44.7289 48.9338 43.1278C49.0139 41.7494 48.9989 40.3809 48.9989 39ZM46.7974 44.899C46.6148 45.3543 46.3947 45.6945 46.0419 46.0448C45.6892 46.3975 45.3515 46.6176 44.8962 46.8003C43.5803 47.3231 40.4558 47.2055 38.9973 47.2055C37.5389 47.2055 34.4118 47.3231 33.0959 46.8028C32.6406 46.6201 32.3004 46.4 31.9502 46.0473C31.5975 45.6945 31.3773 45.3568 31.1947 44.9015C30.6743 43.5831 30.7919 40.4585 30.7919 39C30.7919 37.5415 30.6743 34.4144 31.1947 33.0985C31.3773 32.6432 31.5975 32.303 31.9502 31.9527C32.3029 31.6025 32.6406 31.3799 33.0959 31.1972C34.4118 30.6769 37.5389 30.7945 38.9973 30.7945C40.4558 30.7945 43.5828 30.6769 44.8987 31.1972C45.354 31.3799 45.6942 31.6 46.0444 31.9527C46.3972 32.3055 46.6173 32.6432 46.7999 33.0985C47.3203 34.4144 47.2027 37.5415 47.2027 39C47.2027 40.4585 47.3203 43.5831 46.7974 44.899Z" fill="white"/>
</svg>
