<svg width="78" height="78" viewBox="0 0 78 78" fill="none" xmlns="http://www.w3.org/2000/svg">
<rect width="78" height="78" fill="#666060"/>
<path d="M36.4884 26.9815C28.2871 29.0638 25.0767 34.3927 26.2687 39.0875C26.8454 41.3592 28.9134 43.2523 31.6441 43.8486C32.4666 43.9622 32.2033 43.7066 32.301 41.7473C32.2626 41.5959 32.2241 41.4444 31.9993 41.3403C27.7983 38.8604 28.9407 31.6384 36.7693 29.6507C48.1393 26.7638 49.1325 40.0531 42.0496 41.8515C40.5969 42.3815 39.0614 41.8041 38.7538 40.5926L38.6 39.9868C38.9226 38.1316 39.0972 36.4752 38.8607 34.762C38.0532 31.5816 32.3903 33.503 33.467 37.7435C33.6592 38.5007 34.0379 39.2106 34.5645 39.7217C34.5645 39.7217 34.2771 46.4042 34.1734 47.559C34.2621 49.471 34.9099 51.241 35.7057 52.8122C35.5577 53.011 35.7441 52.9637 35.7441 52.9637L35.9305 52.9164C36.8507 51.0706 37.5846 49.2722 37.9072 47.417C37.9013 46.6125 38.1412 43.6499 38.1412 43.6499C39.3423 44.4733 41.1736 44.6532 42.8512 44.2273C48.6294 42.7602 51.6918 37.63 50.4229 32.6323C49.154 27.6347 43.0121 25.3251 36.4884 26.9815Z" fill="white"/>
</svg>
