<svg width="78" height="78" viewBox="0 0 78 78" fill="none" xmlns="http://www.w3.org/2000/svg">
<rect width="78" height="78" fill="#666060"/>
<path d="M45.3636 43.75H36.438C36.1074 43.75 35.9421 43.625 35.9421 43.25V39.5H45.3636C47.1818 39.5 48.8347 38.375 48.8347 36.875C48.8347 35.375 47.1818 34.25 45.3636 34.25H35.9421V31.625C35.9421 30.125 34.2893 29 32.3058 29C30.4876 29 29 30.125 29 31.625V43.125C29 46.5 31.4793 48.875 36.6033 49H45.5289C47.3471 49 49 47.75 49 46.375C48.8347 44.875 47.1818 43.75 45.3636 43.75Z" fill="white"/>
</svg>
